<?xml version="1.0" encoding="UTF-8"?>
<svg id="Calque_2" data-name="Calque 2" xmlns="http://www.w3.org/2000/svg" xmlns:xlink="http://www.w3.org/1999/xlink" viewBox="-20 -20 240 140">
  <defs>
    <style>
      .cls-1 {
        fill: #2447b3;
      }

      .cls-2 {
        fill: #4a71ff;
      }

      .cls-3 {
        fill: url(#Dégradé_sans_nom_16);
      }
    </style>
    <linearGradient id="Dégradé_sans_nom_16" data-name="Dégradé sans nom 16" x1="94.89" y1="34.16" x2="137.09" y2="43.88" gradientUnits="userSpaceOnUse">
      <stop offset="0" stop-color="#2447b3"/>
      <stop offset=".25" stop-color="#3256cf"/>
      <stop offset=".54" stop-color="#3f65e9"/>
      <stop offset=".8" stop-color="#476df9"/>
      <stop offset="1" stop-color="#4a71ff"/>
    </linearGradient>
  </defs>
  <g id="Calque_1-2" data-name="Calque 1" transform="scale(1.)">
    <g>
      <path class="cls-1" d="M134.75,34.43c-1.61,5.05-5.46,7.58-11.56,7.58h-28.13l-8.9,24.63h-16.96l8.35-23.63-14.27-.19c-15.91,19.2-31.18,27.99-46.37,27.99-4.42,0-8.15-.82-11.18-2.46-3.82-2.08-5.73-5.15-5.73-9.19,0-3.44,1.42-6.8,4.26-10.09,4.58-5.27,11.51-9.17,20.79-11.7,7.26-1.96,15.34-2.88,24.15-3.46l9.38-.86L87.01,0h22.83l-12.22,34.43h37.13ZM51.91,42.01c-11.84,0-20.15,1.71-24.91,5.12-3.95,2.84-5.92,5.86-5.92,9.05,0,2.72,1.42,4.07,4.26,4.07,3.92,0,8.81-2.21,14.68-6.63,5.15-3.82,9.11-7.69,11.89-11.6ZM90.61,7.86l-19.95,24.8,10.58-.77,9.37-24.04Z"/>
      <path class="cls-2" d="M201.58,91.28c-1.33,5.05-5.72,7.58-13.17,7.58h-17c-5.3,0-7.96-1.53-7.96-4.59,0-1.07.33-2.48.99-4.22l7.86-20.46-23.49,25.77c-2.53,2.81-5.29,4.22-8.29,4.22-.57,0-1.17-.05-1.8-.14-3.6-.41-5.4-2.21-5.4-5.4,0-1.23.28-2.56.85-3.98l11.65-30.08-29.22,35.29c-1.96,2.4-4.83,3.6-8.62,3.6h-9.61l19.13-54.7-23.28.02,4.14-11.96h31.64c4.36,0,6.54,1.59,6.54,4.78,0,1.23-.3,2.72-.9,4.45l-10.18,29.37,20.37-23.07c2.59-2.97,4.58-4.89,5.97-5.78,2.3-1.45,5.29-2.18,8.95-2.18,1.04,0,2.13.36,3.27,1.09,1.74,1.14,2.6,2.83,2.6,5.07,0,1.39-.35,2.95-1.04,4.69l-9.19,23.87,18.23-18.33c2.59-2.59,4.31-4.15,5.16-4.69,1.48-.85,3.62-1.26,6.39-1.23,1.1,0,2.27.41,3.5,1.23,1.89,1.23,2.84,3.03,2.84,5.4,0,1.36-.32,2.86-.95,4.5l-11.32,29.89h21.31Z"/>
    </g>
    <path class="cls-3" d="M134.16,44.12l-40.05.1,4.28-12.06,34.23.45c2.82.8,3.26,1.7,3.08,3.54l-1.53,7.98Z"/>
  </g>
</svg>